<?xml version="1.0" encoding="UTF-8" standalone="no"?>
<!DOCTYPE svg PUBLIC "-//W3C//DTD SVG 1.1//EN" "http://www.w3.org/Graphics/SVG/1.1/DTD/svg11.dtd">
<svg width="100%" height="100%" viewBox="0 0 1303 575" version="1.1" xmlns="http://www.w3.org/2000/svg" xmlns:xlink="http://www.w3.org/1999/xlink" xml:space="preserve" xmlns:serif="http://www.serif.com/" style="fill-rule:evenodd;clip-rule:evenodd;stroke-linejoin:round;stroke-miterlimit:1.41421;">
    <path d="M359.234,335.486C359.234,335.486 229.546,361.472 142.94,293.949C147.534,254.279 167.167,219.162 195.983,194.459C195.189,186.172 195.046,178.723 195.316,170.323C203.865,171.558 212.369,174.021 219.792,177.649C242.412,164.677 268.62,157.258 296.544,157.258C324.629,157.258 350.973,164.76 373.685,177.869C379.747,174.41 385.663,172 392.382,169.626C393.88,177.235 394.605,185.146 394.797,192.516C429.225,220.889 451.184,263.849 451.184,311.896C451.184,397.246 381.895,466.535 296.545,466.535C211.2,466.535 141.874,397.22 141.909,311.895C144.872,313.964 239.573,379.035 359.234,335.484L359.234,335.486ZM218.99,413.933L238.82,446.373C195.431,433.213 151.763,376.115 147.85,322.377C182.721,344.681 224.295,356.545 263.433,357.642L231.957,367.729C242.653,374.358 255.081,382.359 266.337,389.052C250.094,388.491 233.85,387.941 217.606,387.387L259.718,415.926L218.99,413.933ZM312.847,321.266C312.847,321.266 327.954,295.86 357.215,304.236C357.215,304.236 342.017,327.669 312.847,321.266ZM275.649,321.266C275.649,321.266 260.542,295.86 231.281,304.236C231.281,304.236 246.479,327.669 275.649,321.266ZM353.319,203.655C359.058,215.627 372.521,220.951 383.569,222.176C388.278,208.543 388.078,193.66 386.521,179.744C373.503,185.34 361.62,193.762 353.319,203.655ZM209.119,221.556C216.98,220.016 223.91,216.744 229.097,212.261C233.036,208.857 235.97,204.754 237.542,200.181C228.393,189.501 215.574,182.43 202.55,179.246C202.807,194.22 204.516,209.543 209.119,221.556Z" style="fill:url(#_Radial1);"/>
    <path d="M1060.1,109.813C1091.89,102.618 1134.75,101.434 1155.39,126.731C1161.35,134.303 1163.14,142.701 1158.33,151.435C1152.81,161 1140.52,159.409 1142.23,148.825C1144.55,140.168 1147.08,133.586 1140.01,127.88C1131.76,121.432 1122.11,118.576 1112.04,117.087C1082.77,112.751 1054.84,118.561 1027.6,128.929C995.219,139.947 968.67,154.019 938.539,160.768C935.548,161.439 934.099,162.714 933.596,165.894C922.586,234.205 908.118,310.674 918.291,380.715C924.106,412.338 956.001,370.807 963.845,357.059C973.501,340.175 984.419,319.059 995.116,299.366C1005.16,280.317 1014.6,262.304 1025.41,252.33C1034.68,243.01 1045.67,237.868 1058.98,238.637C1072.07,239.771 1059.3,247.165 1053.73,247.875C1040.73,249.533 1030.72,257.214 1024.17,267.728C1015.67,281.365 1006.95,298.439 999.966,313.095C986.547,341.276 972.812,369.21 952.39,393.101C942.567,403.885 918.908,432.475 901.675,405.125C880.778,369.685 890.717,303.374 891.074,279.344C883.206,290.64 875.069,303.553 868.064,313.746C866.471,316.092 866.279,317.823 867.321,320.531C877.623,347.263 880.589,374.533 871.534,402.187C864.239,424.46 851.068,441.9 828.64,451.132C809.226,459.126 789.5,452.924 780.831,435.792C770.918,414.492 784.557,392.537 797.569,379.054C810.576,365.213 823.551,351.34 836.662,337.599C838.973,335.178 839.093,333.304 837.77,330.193C830.632,313.411 819.886,299.006 808.545,284.456C797.545,304.912 781.86,324.805 768.364,343.664C748.813,370.985 736.573,388.848 705.936,388.908C670.098,387.269 660.129,363.69 655.668,331.978C634.144,374.666 593.385,393.66 559.207,372.472C547.58,365.092 550.375,356.774 561.114,362.699C578.403,372.384 591.334,366.943 600.683,351.874C613.178,330.46 616.851,312.663 617.366,298.832C622.828,260.661 591.351,252.727 568.727,282.081C555.386,301.895 544.083,322.919 535.827,345.428C534.653,348.633 533.938,352.15 533.768,355.563C530.087,406.95 531.947,456.18 534.281,501.716C534.281,514.258 514.942,516.859 513.447,502.78C503.813,417.05 509.165,320.759 521.048,244.509C522.171,237.939 526.763,229.212 529.593,227.347C539.626,220.733 546.21,224.292 545.585,233.316C544.716,262.92 540.452,292.525 536.923,322.129C546.79,301.801 556.502,280.058 569.278,265.624C586.012,243.071 622.619,236.283 635.739,269.487C645.824,293.801 642.401,317.107 630.789,339.833C625.773,349.65 619.246,358.328 610.943,365.989C640.819,346.963 656.869,311.28 667.298,280.579C676.272,260.144 689.82,243.545 711.398,235.267C744.38,221.136 770.471,255.612 746.076,279.712C734.338,291.245 710.558,301.07 691.797,303.906C687.029,304.642 685.112,306.375 684.546,311.003C678.173,342.212 693.426,392.954 728.915,372.464C754.802,357.454 777.977,311.963 800.558,280.767C802.485,277.921 802.132,276.019 800.092,273.365C790.731,261.183 781.858,248.645 777.479,233.636C766.496,198.021 787.054,162.358 822.63,165.881C831.629,166.835 839.548,169.322 843.685,177.972C852.43,198.072 839.387,232.013 829.862,251.514C829.122,252.972 828.996,255.557 829.805,256.863C840.701,273.67 850.289,291.318 862.334,307.493C872.438,290.742 882.652,274.058 892.419,257.49C896.042,238.122 900.553,196.955 904.62,166.687C865.429,171.058 841.725,156.986 847.898,132.191C849.29,127.975 852.026,124.033 854.825,120.5C858.718,114.971 875.054,117.064 870.067,126.212C867.548,131.385 865.53,136.735 867.299,142.613C873.727,161.634 888.451,155.786 903.782,154.279C906.606,154.015 907.305,152.683 907.749,150.123C911.738,127.078 915.85,104.056 920.007,81.042C922.449,59.517 957.149,55.014 952.677,79.018C947.574,103.722 941.13,127.701 937.137,148.71C979.327,138.74 1021.62,117.813 1060.1,109.813ZM798.636,391.088C775.663,414.563 791.453,452.186 818.988,440.049C853.557,423.227 849.471,375.743 842.776,345.735C827.659,361.182 812.77,375.785 798.636,391.088ZM689.25,292.728C705.731,290.436 726.902,281.669 736.067,271.957C754.199,253.786 731.766,237.103 717.329,249.202C703.596,260.28 694.668,278.824 689.25,292.728ZM821.706,244.126C831.583,224.379 836.082,206.33 833.425,186.059C832.79,176.581 812.398,174.306 808.054,193.965C803.52,212.983 811.706,228.628 821.706,244.126Z" style="fill:white;fill-rule:nonzero;"/>
    <defs>
        <radialGradient id="_Radial1" cx="0" cy="0" r="1" gradientUnits="userSpaceOnUse" gradientTransform="matrix(309.277,0,0,309.277,296.546,398.494)"><stop offset="0" style="stop-color:rgb(0,203,242);stop-opacity:1"/><stop offset="0.57" style="stop-color:rgb(83,82,217);stop-opacity:1"/><stop offset="1" style="stop-color:rgb(120,27,206);stop-opacity:1"/></radialGradient>
    </defs>
</svg>
